<?xml version="1.0" encoding="UTF-8"?>
<svg xmlns="http://www.w3.org/2000/svg" width="940" height="1024" viewBox="0 0 940 1024" preserveAspectRatio="xMidYMid meet">
  <g transform="translate(0, 1024) scale(0.1, -0.1)" fill="#729387" stroke="none">
    <path d="M4521 10199 c-35 -12 -82 -32 -105 -46 -23 -14 -1021 -1005 -2218 -2202 l-2178 -2177 0 -710 0 -709 2294 2294 2294 2294 69 -61 c37 -33 890 -883 1896 -1889 l1827 -1828 0 -1952 c0 -1423 -3 -1954 -11 -1959 -7 -4 -649 631 -1575 1557 l-1564 1564 -534 3 c-445 2 -535 0 -545 -11 -8 -11 -10 -555 -9 -2173 l3 -2159 440 -3 c242 -1 454 0 472 3 17 3 34 13 37 22 4 9 6 610 6 1336 0 1239 4 1617 20 1617 3 0 669 -662 1480 -1471 1102 -1099 1485 -1475 1517 -1490 41 -19 66 -19 625 -17 454 2 582 6 586 16 2 6 10 12 18 12 12 0 14 365 12 2693 l-3 2692 -31 86 c-16 47 -46 108 -65 136 -42 63 -4407 4442 -4469 4483 -48 33 -156 70 -199 69 -14 0 -55 -9 -90 -20z m-4474 -4701 c-3 -8 -6 -5 -6 6 -1 11 2 17 5 13 3 -3 4 -12 1 -19z m0 -330 c-3 -7 -5 -2 -5 12 0 14 2 19 5 13 2 -7 2 -19 0 -25z m0 -40 c-3 -8 -6 -5 -6 6 -1 11 2 17 5 13 3 -3 4 -12 1 -19z m0 -705 c-3 -10 -5 -4 -5 12 0 17 2 24 5 18 2 -7 2 -21 0 -30z m9320 -975 c-3 -8 -6 -5 -6 6 -1 11 2 17 5 13 3 -3 4 -12 1 -19z"/>
    <path d="M2839 2743 c-1 -5 -1 -12 0 -16 1 -5 -3 -6 -9 -2 -12 7 -112 -63 -106 -74 7 -11 -117 -132 -138 -135 -9 -1 -555 -540 -1212 -1197 -657 -657 -1200 -1193 -1206 -1191 -14 4 -68 -48 -68 -65 0 -7 -8 -14 -17 -14 -10 -1 -2 -4 17 -8 19 -3 648 -5 1398 -3 l1362 2 0 1355 c0 897 -3 1355 -10 1355 -5 0 -11 -3 -11 -7z"/>
  </g>
</svg>
